<?xml version="1.0" encoding="utf-8"?>
<!-- Generator: Adobe Illustrator 25.2.3, SVG Export Plug-In . SVG Version: 6.00 Build 0)  -->
<svg version="1.1" id="Layer_1" xmlns="http://www.w3.org/2000/svg" xmlns:xlink="http://www.w3.org/1999/xlink" x="0px" y="0px"
	 viewBox="0 0 448 512" style="enable-background:new 0 0 448 512;" xml:space="preserve">
<style type="text/css">
	.st0{fill:#DC2626;}
	.st1{fill:#B83629;}
</style>
<path class="st0" d="M448,209.9c-44,0.1-87-13.7-122.8-39.3v178.8c0,89.8-72.8,162.6-162.7,162.5C72.7,511.9,0,439.1,0,349.3
	s72.8-162.6,162.7-162.5c7.5,0,14.9,0.5,22.3,1.6v89.9c-39.3-12.4-81.2,9.5-93.6,48.8s9.5,81.2,48.8,93.6
	c39.3,12.4,81.2-9.5,93.6-48.8c2.3-7.2,3.4-14.8,3.4-22.4V0h88c0,7.4,0.6,14.9,1.9,22.2l0,0c6.2,33,25.7,62,53.9,80.2
	c19.9,13.1,43.2,20.1,67,20.1V209.9z"/>
<g>
	<path class="st1" d="M-586.5,233.2c0.1-0.2,0.2-0.2,0.2-0.3c1.2-2.1,2.7-2.9,5.3-2c3.7,1.2,7.5,0.6,11.3-0.1
		c3.5-0.6,6.9-1.5,10.5-2.3c0.2,0.9,0.5,2,0.8,3c-4.4,1.7-6.6,5.3-8.3,9.3c-3.7,8.7-7.3,17.5-9.5,26.8c-0.9,3.7-1.6,7.4-1.1,11.2
		c0.5,3.9,2.9,6,6.4,5.5c1.2-0.2,2.6-0.6,3.5-1.4c1.9-1.5,3.7-3.1,5.2-5c4.5-5.6,7.4-12,9.6-18.7c2.4-7.3,4.8-14.5,7.3-21.8
		c0.4-1.2,0.5-2.2-0.4-3.2c-0.7-0.8-0.5-1.3,0.1-2.1c1.1-1.6,2.3-1.9,4.2-1.3c3.9,1.2,7.9,0.7,11.8,0c3.5-0.6,7-1.5,10.6-2.4
		c0.2,0.9,0.5,1.9,0.7,2.8c-1.3,0.9-2.7,1.6-3.9,2.6c-1.9,1.6-3.2,3.7-4.1,6c-1.3,3-2.5,6-3.7,9c-0.1,0.2-0.1,0.4,0,0.8
		c0.2-0.3,0.5-0.6,0.7-0.9c3.5-5.4,7.4-10.5,12.4-14.5c4.9-3.9,10.4-6.1,16.8-5.9c5.5,0.2,9.5,3.7,10.2,9.2c0.7,5-0.4,9.7-1.8,14.4
		c-2.1,7.1-4.5,14-6.8,21.1c-0.8,2.3-1.2,4.7-1.1,7.2c0.2,3.4,2.3,5,5.7,4.2c2.5-0.6,4.5-2.1,6.2-3.9c0.9-1,2-2,2.6-3.2
		c0.6-1.2,0.9-2.7,1.2-4.1c2.4-12.7,7.4-24.1,16.1-33.8c4.4-5,9.8-8.7,16.4-10.3c3.4-0.8,6.9-1,10.3-0.2c3.7,0.9,6.4,3,8.1,6.4
		c0.2,0.5,0.8,0.8,1.2,1.2c0.4-0.4,0.9-0.8,1.2-1.3c0.5-1,0.8-2.2,1.2-3.3c0.2-0.7,0.7-1,1.4-0.8c6.9,1.9,13.5,0.1,20.1-1.9
		c0.4-0.1,0.8-0.2,1.3-0.4c0.7-0.2,1.3-0.2,1.5,0.6c0.2,0.8,1,1.9-0.2,2.4c-4.3,2.1-6.4,6-8,10.2c-2.9,7.8-6,15.5-8.5,23.4
		c-1.7,5.4-2.5,11.2-3.8,16.8c-1.9,8.9-4.6,17.6-9.5,25.4c-7.4,12-18.2,19.5-31.5,23.5c-7.1,2.1-14.4,3.2-21.8,3.6
		c-7.4,0.4-14.9,0.4-22.3-0.6c-6.4-0.9-12.7-2.1-19-3.4c-9.7-1.9-19.3-4.2-29.1-6c-10.8-2-21.7-2.4-32.7-1.4
		c-16.7,1.5-32.4,6.5-47.6,13.4c-1.6,0.7-3.3,1.4-4.9,2.3c-1.6,0.9-3.2,1.2-5,0.9c-9.6-1.4-19.2-2.7-28.8-4
		c-2.6-0.4-5.2-0.7-7.8-1.1c-0.6-0.1-1.1-0.5-1.6-0.8c0.3-0.5,0.5-1.1,1-1.4c15.9-10.5,33.3-17.5,52.1-20.9c8-1.4,16.1-2.2,24.3-2.4
		c10.2-0.3,20.4,0.3,30.6,1.5c14.5,1.6,28.8,4.6,43.2,7.3c9.4,1.8,18.8,3.7,28.3,5c9.2,1.3,18.5,1.4,27.7-0.1
		c13.3-2.1,22.8-9.1,28.2-21.5c1.7-4,3.2-8.1,4.8-12.1c0.1-0.3,0.3-0.6,0.2-0.8c-0.1-0.4-0.3-0.9-0.6-1c-0.2-0.1-0.8,0-1,0.2
		c-0.4,0.4-0.7,1-1,1.5c-2.6,4.3-5.5,8.4-9.5,11.6c-3.8,3-8.1,4.4-13,3.7c-6.2-1-9.6-5.1-11.5-10.7c-0.6-1.9-0.9-3.9-1.5-6.1
		c-0.4,0.7-0.8,1.3-1.1,1.8c-2.7,4.4-5.8,8.5-10.1,11.5c-4.8,3.3-10,4.7-15.7,3c-5.7-1.7-8.3-6.1-9-11.7c-0.9-6.1,0.4-12,2.3-17.8
		c2.7-8.1,5.7-16,8.6-24c1.1-3,2.1-6.1,2.9-9.2c0.7-2.7-0.7-4.1-3.4-3.7c-2.8,0.4-5,1.8-7.1,3.6c-5,4.1-8.7,9.1-12,14.5
		c-6,9.9-10.3,20.6-13.7,31.6c-1.6,5.1-3.3,10.2-5,15.3c-0.2,0.6-0.4,1.1-1.2,1.1c-5.8,0-11.6,0-17.4,0c-0.2,0-0.3-0.1-0.7-0.1
		c1.3-4,2.6-8,4-11.9c-0.1,0-0.2-0.1-0.2-0.1c-0.4,0.5-0.7,1-1.1,1.5c-2.7,3.6-5.7,6.9-9.7,9.1c-4.1,2.2-8.4,2.9-13,2.2
		c-5-0.7-8.2-4-10.3-8.4c-2.6-5.5-2.7-11.3-1.2-17c1.4-5.2,3.2-10.4,4.9-15.5c3-8.8,6-17.5,9-26.2
		C-584.6,235.8-584.7,234.3-586.5,233.2z M-463.7,275.7c0.2,0.9,0.3,2.7,0.8,4.3c1.2,3.8,4.2,5.1,7.7,3.3c1.7-0.9,3.2-2.2,4.6-3.6
		c3-3.1,5.1-6.9,7.1-10.7c3.5-6.7,5.8-13.9,8.2-21c0.4-1.1,0.9-2.1,0.9-3.2c0-4.6-4.3-8.7-9-7.7c-2.1,0.5-3.9,1.5-5.5,2.9
		c-4,3.5-6.6,7.9-8.8,12.5C-461.1,259.7-463.4,267.1-463.7,275.7z"/>
	<path class="st1" d="M-347.6,304c0.8-2.5,1.6-4.8,2.3-7c0.7-2.3,1.4-4.5,2.2-6.8c-0.1-0.1-0.2-0.1-0.3-0.2
		c-0.3,0.4-0.6,0.8-0.9,1.2c-2.7,3.7-5.8,7.1-9.6,9.7c-3.3,2.2-6.9,3.7-10.9,4c-5.7,0.4-9.8-2.1-12.7-7c-2.3-3.9-2.9-8.2-2.7-12.6
		c0-0.4,0-0.9-0.2-1.4c-0.2,0.4-0.5,0.7-0.7,1.1c-2.8,5.2-5.8,10.2-10.1,14.4c-3.2,3.1-6.9,5.4-11.5,5.6c-6.7,0.3-11.6-2.7-14.2-9
		c-1.8-4.2-2.4-8.7-2.2-13.2c0.7-16,6-30.2,16.3-42.4c4.6-5.4,10.1-9.5,17.2-11.2c3.4-0.8,6.8-1,10.2-0.2c4.2,1,7,3.5,8.6,7.5
		c0.2,0.5,0.4,1.1,0.8,2c1-2.8,1.9-5.3,2.9-7.9c8.1,2.9,15.8,0.3,23.6-1.9c0.2,0.9,0.5,1.8,0.7,2.7c0,0.2-0.2,0.7-0.5,0.8
		c-3.7,1.5-6,4.5-7.5,7.9c-4.2,9.9-8.2,19.9-10.4,30.5c-0.6,3.1-1,6.2-0.4,9.4c0.8,4.1,4.1,5.8,7.9,4.3c2.5-0.9,4.4-2.7,6.1-4.7
		c5.1-6.1,8.4-13.1,10.8-20.6c4.5-14.3,9.5-28.4,16.3-41.9c4.8-9.5,10.3-18.5,17.6-26.3c8.6-9.2,18.8-15.5,31.4-17.7
		c7.6-1.3,15.3-1.6,22.7,0.9c4.7,1.5,8.6,4.2,10.5,8.9c1.8,4.4,1.3,8.6-1.2,12.6c-1.7,2.8-4.5,3.9-7.7,4.3c-1,0.1-2,0-3.1,0
		c0.1-1.5,0.2-2.8,0.2-4.2c0.1-2.7-0.2-5.3-1.1-7.8c-1.7-4.4-5-6.7-9.6-7.2c-8-0.9-14.8,1.9-20.8,6.8c-6.1,5-10.5,11.4-14.4,18.1
		c-6.2,10.7-10.9,22.2-15.1,33.8c-0.7,1.8-1.3,3.6-1.7,5.5c0.3-0.3,0.6-0.7,0.9-1c4-4.9,8.4-9.3,14.1-12.2c4.6-2.4,9.4-3.7,14.6-2.8
		c5.1,0.9,8.2,4.4,8.6,9.7c0.4,5.2-0.8,10.1-2.3,14.9c-2,6.4-4.2,12.8-6.2,19.2c-0.7,2.3-1.2,4.7-1.3,7.1c-0.2,3.7,2.2,5.5,5.8,4.8
		c2.5-0.5,4.4-2,6.2-3.7c4.4-4.3,7.5-9.5,10.3-14.9c0.2-0.4,0.3-0.7,0.5-1.1c0.3-0.5,0.4-1.2,1.2-0.9c0.8,0.2,1.5,0.7,1.4,1.5
		c-0.1,1.2-0.1,2.5-0.5,3.5c-4,9.9-8.5,19.5-15.7,27.5c-3.9,4.3-8.5,7.3-14.3,8.3c-8.6,1.5-15.7-4-16.4-12.7
		c-0.5-6.4,0.8-12.6,2.8-18.6c2.9-8.6,6.2-17.2,9.3-25.8c0.8-2.2,1.4-4.4,1.9-6.7c0.5-2.2-0.8-3.5-3.1-3.2c-4,0.5-7,3-9.8,5.7
		c-5.2,5-8.9,11.1-12.4,17.2c-4,7-6.4,14.7-8.9,22.3c-2.1,6.6-4.3,13.1-6.5,19.6c-0.3,1-0.8,1.4-1.9,1.4c-5.3-0.1-10.6,0-16,0
		C-346.5,304-346.9,304-347.6,304z M-398.7,274.8c0.1,0.9,0.2,2.4,0.5,3.8c0.8,3.9,3.6,6.1,6.9,5.3c1.5-0.4,3-1.2,4.2-2.1
		c3-2.3,5.1-5.4,7-8.6c5-8.2,8.4-17.1,11.2-26.2c1.7-5.6-3.1-11-8.9-9.9c-2.6,0.5-4.7,1.8-6.6,3.5c-3.9,3.6-6.7,8-8.9,12.8
		C-396.3,260-398.3,266.9-398.7,274.8z"/>
	<path class="st1" d="M-580.5,199.6c0.1-1.1,0.1-2.1,0.2-3c0.3-3.6,0-7-1.6-10.3c-1.8-3.7-5.1-5.4-9-5.9c-8.9-1.1-16.1,2.5-22.5,8.3
		c-6.3,5.8-10.9,12.9-14.9,20.4c-6,11.3-10.6,23.2-14.8,35.2c-0.1,0.2-0.1,0.4,0.1,0.7c0.3-0.3,0.5-0.7,0.8-1
		c3.6-5.2,7.8-9.9,13.5-13c5.1-2.7,10.4-3.7,16.1-2.2c5.6,1.5,8.6,5.5,10,10.9c1.2,4.5,1.2,9,0.7,13.6c-1.5,12.4-5.7,23.8-12.8,34.1
		c-4.1,6-8.9,11.2-15.5,14.5c-5.4,2.7-11,3.9-16.9,2c-5.6-1.7-8.6-6-8.7-11.8c-0.1-3.8,0.8-7.3,2.8-10.5c0.8-1.3,2-2.3,3.1-3.3
		c0.5-0.5,1.2-0.3,1.2,0.6c0.2,3.5,4.1,6.4,8.8,5.6c3.4-0.6,6-2.5,8.3-4.9c4.7-5,7.5-11,9.7-17.3c1.6-4.8,2.8-9.7,3-14.7
		c0.1-2.4-0.1-4.7-1-6.9c-1.1-2.8-3.3-4-6.2-3.4c-3.3,0.6-5.8,2.5-8.1,4.8c-4.6,4.5-7.9,10.1-11.3,15.6c-4.7,7.7-7.5,16.2-10.3,24.7
		c-2.2,6.8-4.5,13.6-6.7,20.4c-0.4,1.1-0.8,1.5-2.1,1.5c-5.7-0.1-11.4,0-17.3,0c0.1-0.4,0.1-0.8,0.3-1.2
		c6.4-19.7,12.7-39.5,19.3-59.1c4.8-14.2,10.9-27.9,19.1-40.5c5.9-9,12.9-16.9,22-22.8c7.4-4.8,15.5-7.6,24.3-8.3
		c5.5-0.5,11-0.5,16.4,1c4,1.1,7.6,3,10.3,6.2c4.2,5.1,3.7,13.4-1,17.4C-573.9,199.2-577,199.9-580.5,199.6z"/>
	<path class="st1" d="M-559.2,197.9c4.8,0,6.9,1.8,7.2,6.6c0.1,1.5-0.1,3-0.6,4.5c-2,6.3-5.7,11.1-12.1,13.4
		c-1.1,0.4-2.4,0.6-3.6,0.6c-4.7,0.1-7.6-2.7-7.6-7.4c0-5.7,2.5-10.2,6.6-13.9C-566.4,199.2-563,197.9-559.2,197.9z"/>
</g>
<rect x="-563.9" y="-51.2" class="st0" width="100.2" height="82.1"/>
</svg>
